<?xml version="1.0" encoding="utf-8"?>
<!DOCTYPE svg PUBLIC "-//W3C//DTD SVG 1.0//EN" "http://www.w3.org/TR/2001/REC-SVG-20010904/DTD/svg10.dtd">
<svg version="1.0" xmlns="http://www.w3.org/2000/svg" width="779px" height="504px" viewBox="0 0 779 504" preserveAspectRatio="xMidYMid meet">
 <g fill="#ff7575">
  <path d="M435.7 502.3 c-0.4 -0.3 -0.7 -8.7 -0.7 -18.5 l0 -17.8 2.6 0 c1.4 0 3.9 -1.1 5.6 -2.5 3.4 -2.9 5.7 -3.1 9.8 -1 3.8 2 5.3 6.9 4.8 15.7 -0.3 6.4 -0.7 7.3 -3.6 9.9 -3.6 3.3 -7.6 3.7 -11 1.3 -2.2 -1.5 -2.2 -1.5 -2.2 4.1 0 3.1 -0.5 6.5 -1 7.6 -1.1 1.9 -3.1 2.5 -4.3 1.2z m13.8 -15.7 c2.8 -2 3.5 -16.4 1.1 -20.1 -2 -3 -4.9 -3.2 -7.6 -0.5 -1.7 1.7 -2 3.3 -2 10.2 0 10.7 3 14.4 8.5 10.4z"/>
  <path d="M363.3 489.9 c-4.2 -0.8 -8.3 -3.5 -8.3 -5.4 0 -1.9 0.3 -1.9 5 0.5 5.4 2.8 9.5 2.6 12.6 -0.6 2 -1.9 2.4 -3.1 1.9 -5.2 -0.9 -3.8 -2.1 -4.9 -9.7 -9.8 -7.6 -4.9 -10.3 -8.9 -9.4 -13.9 1 -4.9 4.7 -7.8 10.9 -8.3 7.2 -0.6 11.7 1.6 11.7 5.8 0 1.7 -0.4 3 -1 3 -0.5 0 -1 -0.6 -1 -1.3 0 -4.4 -9.2 -6.7 -13 -3.2 -4 3.7 -1.3 9.8 6.1 13.5 9.9 5.1 13.6 11.5 10.5 18.2 -2.6 5.4 -9.3 8.2 -16.3 6.7z"/>
  <path d="M654.2 489.5 c-3.1 -1.4 -4.7 -4.5 -4 -8.1 0.5 -2.7 5.2 -5.6 10.2 -6.1 l4.6 -0.6 0 -4.6 c0 -5.7 -1 -7.4 -4.1 -6.9 -1.7 0.2 -2.5 1 -2.7 3 -0.2 1.4 -1 3.2 -1.8 3.9 -1.2 1 -1.9 0.9 -3.6 -0.8 -1.7 -1.7 -1.8 -2.4 -0.8 -4.2 2.3 -4.3 11.9 -5.6 16.1 -2.2 2.2 1.8 2.4 2.8 2.7 12.5 0.4 10.6 0.4 10.6 -2 10.6 -1.3 0 -3.3 0.7 -4.5 1.5 -4 2.8 -6.7 3.4 -10.1 2z m9.6 -3.8 c0.6 -0.5 1.2 -2.9 1.2 -5.3 0 -4.3 -0.1 -4.4 -2.7 -3.8 -5.8 1.4 -8.2 6.4 -4.8 9.8 1.5 1.5 3.8 1.2 6.3 -0.7z"/>
  <path d="M726.8 490.2 c-6.4 -0.8 -10.1 -10.5 -7.8 -20.2 1.9 -8.1 8.6 -11.3 15.9 -7.6 5.2 2.7 7.6 13.3 4.7 20.9 -2.1 5.5 -6.2 7.7 -12.8 6.9z m6.2 -3.2 c1.7 -1.7 2 -3.3 2 -10.8 0 -9.8 -1.4 -13.2 -5.5 -13.2 -3.9 0 -5.5 3.5 -5.5 12.3 0 4.3 0.5 8.8 1.1 10 2.2 4.2 4.8 4.8 7.9 1.7z"/>
  <path d="M7.8 488.9 c-1.6 -0.9 -1.8 -2.9 -1.8 -19.4 l0 -18.4 -2.7 -1.5 c-2.8 -1.5 -2.7 -1.5 3 -1.6 l5.7 0 0 21 c0 21.9 -0.1 22.3 -4.2 19.9z"/>
  <path d="M23 477.2 c0 -12.4 -0.1 -12.9 -2.2 -14 -2 -0.9 -1.6 -1.1 3 -1.1 5 -0.1 5.2 0 5.2 2.5 l0 2.6 3.5 -3.1 c3.9 -3.4 7.9 -4 11.1 -1.7 1.6 1.2 1.9 2.9 2.2 12.8 0.3 10.2 0.6 11.5 2.5 13 2.2 1.7 2.2 1.8 -1.8 1.8 -2.3 0 -4.6 -0.5 -5.3 -1.2 -0.8 -0.8 -1.2 -4.8 -1.2 -11.3 0 -10.3 -0.7 -12.5 -4 -12.5 -0.9 0 -2.7 1.2 -4.1 2.6 -2.1 2.3 -2.4 3.6 -2.7 12.5 l-0.4 9.9 -2.9 0 -2.9 0 0 -12.8z"/>
  <path d="M60.2 488.8 c-0.8 -0.8 -1.2 -5.2 -1.2 -13 0 -11 -0.1 -11.8 -1.9 -11.8 -3.1 0 -3.5 -1.9 -0.7 -3 3.2 -1.2 4.6 -3.9 4.6 -8.9 0 -3 0.4 -4.1 1.5 -4.1 1.2 0 1.5 1.4 1.5 6.5 l0 6.5 4 0 c2.9 0 4 0.4 4 1.5 0 1.1 -1.1 1.5 -4 1.5 l-4 0 0 10.1 c0 10.2 0.9 13.9 3.5 13.9 0.8 0 1.5 0.5 1.5 1 0 1.4 -7.4 1.2 -8.8 -0.2z"/>
  <path d="M82.2 487.5 c-1.7 -1.4 -3.6 -4.2 -4.2 -6.1 -1.5 -4.5 -0.8 -12.5 1.3 -15.8 3.9 -5.9 16.1 -5.7 19.2 0.4 2.7 5.3 0.9 6.8 -9.5 7.2 -5.1 0.3 -5.5 0.5 -5.8 3 -0.2 1.5 0.4 4 1.3 5.7 2.2 4.4 5.7 6.4 10.5 5.9 2.5 -0.2 3.9 0 3.7 0.7 -0.2 0.5 -3.3 1.1 -6.9 1.3 -5.8 0.3 -6.9 0 -9.6 -2.3z m11.6 -19.1 c0.4 -2.7 -2.3 -5.4 -5.3 -5.4 -1.7 0 -2.9 0.9 -4 3 -2.1 4.1 -1.2 5.2 4.3 4.8 3.9 -0.2 4.8 -0.7 5 -2.4z"/>
  <path d="M110.2 488.8 c-0.8 -0.8 -1.2 -5.4 -1.2 -14 l0 -12.8 2.5 0 c1.8 0 2.5 0.5 2.5 2 0 2.7 1.4 2.5 3.4 -0.5 1.9 -2.8 6.3 -3.4 7.2 -1 1 2.5 -1.4 4.5 -4.6 3.9 -4 -0.9 -5.2 2.1 -5.8 13.8 -0.5 9.8 -1.2 11.4 -4 8.6z"/>
  <path d="M132.8 477.3 c-0.3 -12.5 -0.4 -12.8 -2.8 -14 -2.3 -1.2 -2 -1.3 3.3 -1.3 5.5 0 5.7 0.1 5.7 2.6 l0 2.6 3.5 -3.1 c3.5 -3 7.6 -4 10.1 -2.3 2.5 1.6 3.4 5.6 3.4 15 0 9.2 0.2 10.1 2.3 11.5 2.2 1.6 2.1 1.6 -1.8 1.6 -2.3 0.1 -4.6 -0.4 -5.3 -1.1 -0.8 -0.8 -1.2 -4.6 -1.2 -10.6 0 -5.1 -0.5 -10.2 -1 -11.3 -1.5 -2.8 -4.5 -2.3 -7.4 1.2 -2.4 2.8 -2.6 3.8 -2.6 12.5 l0 9.4 -3 0 -2.9 0 -0.3 -12.7z"/>
  <path d="M166.1 487.4 c-2.4 -3.1 -2.5 -3.5 -1 -6.8 1.2 -2.5 6.7 -5.2 11.9 -5.8 2.1 -0.3 2.5 -0.9 2.8 -4 0.6 -7.6 -4.9 -10.8 -7.2 -4.1 -1.5 4.4 -2.3 4.9 -4.6 2.8 -2.7 -2.4 -2.5 -3.9 0.6 -6.4 3.6 -2.9 11.2 -2.9 14.2 -0.1 2 1.9 2.2 3.1 2.2 12.5 0 9.3 -0.2 10.5 -1.7 10.5 -1 0 -3.3 0.9 -5.1 2 -4.7 2.9 -9.6 2.6 -12.1 -0.6z m12.3 -2.3 c1.1 -1.2 1.6 -3.1 1.4 -5.3 -0.3 -2.9 -0.6 -3.3 -2.8 -2.9 -4.5 0.6 -6 2 -6 5.5 0 1.8 0.3 3.6 0.7 3.9 1.3 1.4 5 0.7 6.7 -1.2z"/>
  <path d="M198.9 488.3 c-1 -1.1 -1.5 -5.2 -1.7 -13 -0.3 -10.3 -0.5 -11.3 -2.3 -11.3 -1 0 -1.9 -0.7 -1.9 -1.5 0 -0.8 0.9 -1.5 2.1 -1.5 2.3 0 4.9 -5.2 4.9 -10 0 -2 0.5 -3 1.5 -3 1.2 0 1.5 1.4 1.5 6.5 l0 6.5 3.8 0 c2.8 0 3.9 0.4 3.9 1.5 0 1.1 -1.1 1.5 -3.9 1.5 l-3.9 0 0.3 11.3 c0.3 10.5 0.4 11.3 2.6 12.2 3.3 1.5 2.7 2.5 -1.7 2.5 -2.4 0 -4.4 -0.6 -5.2 -1.7z"/>
  <path d="M219 489 c-1.2 -0.7 -1.6 -3.6 -1.8 -13 -0.3 -11.3 -0.5 -12.2 -2.5 -13 -1.7 -0.7 -1 -0.9 3.1 -0.9 l5.2 -0.1 0 12.4 c0 11.7 0.1 12.4 2.3 13.9 2.2 1.6 2.2 1.6 -1.3 1.6 -1.9 0.1 -4.2 -0.4 -5 -0.9z"/>
  <path d="M237.7 488.9 c-4.3 -2.5 -6.2 -14.4 -3.3 -21.3 3.8 -9 15.8 -8.8 19.6 0.3 0.7 1.9 1.1 5.9 0.8 10.2 -0.3 6.3 -0.7 7.4 -3.1 9.5 -3.1 2.6 -10.6 3.3 -14 1.3z m9.9 -2 c1.6 -1.8 1.9 -3.7 1.9 -11.4 0 -6.3 -0.4 -9.7 -1.4 -10.8 -1.8 -2.2 -6.8 -2.2 -7.9 0.1 -3 5.5 -2.4 19 0.9 22.3 2.5 2.5 4.1 2.4 6.5 -0.2z"/>
  <path d="M266 478.2 c0 -11.9 -0.6 -14.3 -4 -15.5 -0.8 -0.3 0.9 -0.6 3.8 -0.6 4.9 -0.1 5.2 0 5.2 2.4 0 3.2 0.6 3.1 4 -0.5 2.1 -2.2 3.7 -3 6.2 -3 5.7 0 6.8 2.2 6.8 13.1 0 11.3 0.5 13.3 3.3 14.8 1.8 0.9 1.4 1 -2.8 0.8 l-5 -0.2 -0.5 -11 c-0.3 -6 -0.9 -11.6 -1.3 -12.2 -1.5 -2.4 -5.5 -1.4 -7.9 2 -1.9 2.7 -2.4 4.7 -2.6 12.5 -0.4 9 -0.5 9.2 -2.8 9.2 -2.4 0 -2.4 0 -2.4 -11.8z"/>
  <path d="M299 488 c-5.3 -5.3 0.7 -13 10 -13 l3.1 0 -0.3 -5.7 c-0.3 -5.2 -0.5 -5.8 -2.7 -6.1 -2.6 -0.4 -4.1 1.2 -4.1 4.4 0 2.9 -2.4 3.7 -4.4 1.5 -2.4 -2.6 -1.9 -4.9 1.4 -6.6 4.6 -2.4 10.6 -2 13.5 1 2.3 2.2 2.5 3.1 2.5 12.5 0 9.9 0 10 -2.4 10 -1.3 0 -3.5 0.9 -4.9 2 -1.4 1.2 -4 2 -6.1 2 -2.3 0 -4.3 -0.7 -5.6 -2z m11.8 -2.3 c0.6 -0.5 1.2 -2.9 1.2 -5.3 0 -4.3 -0.1 -4.4 -2.7 -3.8 -5.4 1.2 -8 6.6 -4.8 9.8 1.5 1.5 3.8 1.2 6.3 -0.7z"/>
  <path d="M331 489 c-1.2 -0.7 -1.6 -4.5 -2 -19.7 l-0.5 -18.7 -2.5 -1.3 c-2.3 -1.2 -2.1 -1.3 2.8 -1.3 l5.2 0 0 18.8 c0 10.3 0.4 19.2 0.8 19.8 0.4 0.6 1.6 1.6 2.7 2.2 1.8 1 1.6 1.1 -1.5 1.2 -1.9 0 -4.2 -0.5 -5 -1z"/>
  <path d="M391.1 488.6 c-0.8 -1 -1.4 -7.9 -1.8 -20 -0.6 -17.4 -0.7 -18.5 -2.7 -19.4 -1.7 -0.9 -1.1 -1.1 3.2 -1.1 l5.2 -0.1 0 19.4 c0 18.9 0 19.4 2.3 20.9 2.2 1.6 2.2 1.6 -1.4 1.6 -2 0.1 -4.2 -0.5 -4.8 -1.3z"/>
  <path d="M405.1 487.4 c-2.5 -3.2 -2.6 -4.3 -0.5 -7.3 2 -2.8 7.2 -5.1 11.4 -5.1 2.9 0 3 -0.2 3 -4.3 0 -7.8 -5.2 -10.6 -7.4 -4 -1.5 4.4 -2.3 4.9 -4.6 2.8 -2.7 -2.4 -2.5 -3.9 0.6 -6.4 3.6 -2.9 11.6 -2.9 14.4 -0.1 1.7 1.7 2 3.3 2 12.5 0 9.3 -0.2 10.5 -1.7 10.5 -1 0 -3.3 0.9 -5.1 2 -4.7 2.9 -9.6 2.6 -12.1 -0.6z m13.5 -4 c0.3 -1.2 0.4 -3.3 0.2 -4.5 -0.2 -1.9 -0.8 -2.3 -2.8 -2 -4.5 0.6 -6 2 -6 5.6 0 4.1 2.3 5.8 5.7 4.2 1.3 -0.6 2.6 -2 2.9 -3.3z"/>
  <path d="M466.9 488 c-2.7 -2.2 -1.7 -2.5 3 -0.9 2.4 0.8 3.9 0.9 5.7 0 3.5 -1.5 3 -4.6 -1.3 -7.8 -9.6 -7.3 -11.2 -10.7 -7.4 -15.4 1.6 -2 2.8 -2.3 7.7 -2.4 5.8 0 5.9 0 6.2 3 l0.3 3 -1.6 -2.2 c-3 -4.3 -10.5 -2.1 -9.1 2.5 0.4 1.1 2.9 3.3 5.6 5 7.2 4.5 9 10.3 4.5 14.7 -3.1 3.2 -10.1 3.5 -13.6 0.5z"/>
  <path d="M506.9 488.4 c-1 -1.3 -1.5 -6.5 -1.9 -19.8 -0.5 -18 -0.5 -18 -3 -19.3 -2.1 -1.1 -0.4 -1.3 11.8 -1.3 8.8 0 14.2 0.4 14.2 1 0 0.6 -3.1 1 -7.3 1 -4.3 0 -7.8 0.5 -8.5 1.2 -0.7 0.7 -1.2 4 -1.2 8 l0 6.8 7.5 0 c6 0 7.5 0.3 7.5 1.5 0 1.2 -1.5 1.5 -7.5 1.5 l-7.5 0 0 10.5 c0 8.3 -0.3 10.5 -1.4 10.5 -0.7 0 -2 -0.7 -2.7 -1.6z"/>
  <path d="M537.3 486.7 c-3.4 -3.2 -3.7 -4 -4.1 -9.9 -0.5 -7.6 1.3 -12 5.8 -14.3 3.4 -1.8 6.6 -1.9 10.9 -0.4 3.5 1.2 5.1 3.5 5.1 7.2 0 3.1 -1.5 3.7 -9.6 3.7 l-6.4 0 0 3.3 c0 3.8 3 9.1 6.1 10.7 1.1 0.7 3.9 1 6 0.8 2.4 -0.2 3.8 0 3.6 0.7 -0.2 0.5 -3.3 1.1 -7 1.3 -6.3 0.3 -6.8 0.1 -10.4 -3.1z m11.7 -16.7 c1.3 -0.8 1.3 -1.3 0 -3.7 -2.1 -3.7 -6.2 -4.3 -8.4 -1.1 -2.9 4.1 -2.1 5.8 2.7 5.8 2.3 0 4.9 -0.5 5.7 -1z"/>
  <path d="M567.7 488.8 c-6.1 -4.6 -6 -21 0.1 -25.9 3 -2.3 7.9 -2.5 11 -0.3 l2.2 1.5 0 -6.9 c0 -6.2 -0.2 -7 -2.2 -8 -2 -0.9 -1.6 -1.1 3 -1.1 l5.2 -0.1 0 19 c0 16.4 -0.2 19 -1.5 19 -0.9 0 -3.3 0.9 -5.5 2 -4.4 2.3 -9.8 2.6 -12.3 0.8z m12.9 -4.3 c1.3 -2.1 1.6 -4 1.1 -9.2 -0.7 -7.5 -2.7 -11.3 -6 -11.3 -4.8 0 -6.7 3.6 -6.7 12.2 0 8 1.7 10.8 6.5 10.8 2.6 0 3.9 -0.6 5.1 -2.5z"/>
  <path d="M602.1 487.5 c-1.6 -1.4 -3.5 -4.2 -4.1 -6.1 -1.5 -4.5 -0.8 -12.5 1.3 -15.8 3.9 -5.9 16.1 -5.7 19.2 0.4 1.8 3.6 1.8 3.5 -0.1 5.4 -1.1 1.1 -3.5 1.6 -8 1.6 -7.5 0 -8.3 0.9 -6.5 7 1.6 5.3 5.4 8.2 10.6 8 5.6 -0.2 6.2 -0.1 4.5 1 -0.8 0.5 -4.3 1 -7.7 1 -5.1 0 -6.6 -0.4 -9.2 -2.5z m11.7 -19.1 c0.4 -2.7 -2.3 -5.4 -5.3 -5.4 -1.7 0 -2.9 0.9 -4 3 -2.1 4.1 -1.2 5.2 4.3 4.8 3.9 -0.2 4.8 -0.7 5 -2.4z"/>
  <path d="M630.8 488.9 c-1.6 -0.9 -1.8 -2.7 -1.8 -13.9 l0 -13 2.5 0 c1.8 0 2.5 0.5 2.5 2 0 2.7 1.4 2.5 3.4 -0.5 1.9 -2.8 6.3 -3.4 7.2 -1 1 2.5 -1.4 4.5 -4.6 3.9 -4 -0.9 -5.2 2.1 -5.8 13.8 -0.3 5.4 -0.7 9.8 -1.1 9.8 -0.3 0 -1.4 -0.5 -2.3 -1.1z"/>
  <path d="M684.6 488.4 c-1.3 -1.2 -1.6 -3.9 -1.6 -13 0 -10.6 -0.1 -11.4 -1.9 -11.4 -3.1 0 -3.5 -1.9 -0.7 -3 3.2 -1.2 4.6 -3.9 4.6 -8.9 0 -3 0.4 -4.1 1.5 -4.1 1.2 0 1.5 1.4 1.5 6.5 l0 6.5 4 0 c2.9 0 4 0.4 4 1.5 0 1.1 -1.1 1.5 -4 1.5 l-4 0 0 9.4 c0 10.2 1.1 14.6 3.5 14.6 0.8 0 1.5 0.5 1.5 1 0 1.6 -6.7 1.2 -8.4 -0.6z"/>
  <path d="M704.2 488.8 c-0.8 -0.8 -1.2 -4.9 -1.2 -11.8 0 -10.7 -0.7 -13.1 -4 -14.3 -0.8 -0.3 0.9 -0.6 3.8 -0.6 l5.2 -0.1 0 11.4 c0 12.2 0.4 14.6 2.5 14.6 0.8 0 1.7 0.5 2 1 0.9 1.4 -6.8 1.3 -8.3 -0.2z"/>
  <path d="M750.8 477.3 c-0.3 -12.5 -0.4 -12.8 -2.8 -14 -2.3 -1.2 -2 -1.3 3.3 -1.3 5.5 0 5.7 0.1 5.7 2.6 l0 2.6 3.5 -3.1 c3.9 -3.4 7.9 -4 11.1 -1.7 1.6 1.2 1.9 2.9 2.2 12.8 0.3 10.2 0.6 11.5 2.5 13 2.2 1.7 2.2 1.8 -1.8 1.8 -2.3 0 -4.6 -0.5 -5.3 -1.2 -0.8 -0.8 -1.2 -4.6 -1.2 -10.6 0 -5.1 -0.5 -10.2 -1 -11.3 -1.5 -2.8 -4.5 -2.3 -7.4 1.2 -2.4 2.8 -2.6 3.8 -2.6 12.5 l0 9.4 -3 0 -2.9 0 -0.3 -12.7z"/>
  <path d="M218 452.5 c-1.8 -2.1 -0.5 -4.7 2.2 -4.3 2.6 0.3 3.7 3.6 1.6 4.9 -1.8 1.2 -2.4 1.1 -3.8 -0.6z"/>
  <path d="M703.6 452.5 c-2 -2.1 -1 -4.5 1.9 -4.5 2.7 0 3.6 1.7 2.3 4.3 -1.1 2.1 -2.2 2.2 -4.2 0.2z"/>
  <path d="M293.4 431.4 c-27.7 -3.7 -57.4 -15.4 -75.9 -29.7 -19.3 -15 -23.6 -22.1 -18.5 -30.5 2.4 -4 7.3 -6.3 10.9 -5.2 1.4 0.4 6.9 3.6 12.1 7.1 21.1 14.2 48.5 25.6 70.5 29.5 11.8 2 37.6 2.3 50 0.4 45.8 -6.7 67.5 -29.3 67.5 -70.2 0 -30.1 -9.8 -49.1 -34.8 -67.6 -10.6 -7.9 -18.8 -12.9 -57.2 -35.2 -53.4 -31 -71.3 -43.3 -87.5 -60.1 -10.6 -11 -14.2 -15.9 -19.5 -27.1 -6.5 -13.6 -8.3 -21.9 -8.4 -39.3 0 -12.6 0.3 -16.4 2.3 -24 5.5 -21.4 17.1 -39 33.9 -51.3 17.2 -12.6 35.7 -19.9 62.2 -24.4 18.6 -3.2 51.8 -3.2 67.8 0 19.8 4 37.7 10.9 54.7 21.2 l8.5 5.1 0 31.5 0 31.4 -2.9 0 c-2.8 0 -2.8 -0.1 -3.5 -6.7 -2.3 -22 -12.5 -39 -30.6 -50.8 -15.9 -10.4 -35.8 -15.5 -60.5 -15.5 -38.2 0 -63.8 14 -74.8 41 -8.7 21.3 -6.9 48.4 4.5 67.8 4.6 7.9 19.6 22.6 30.1 29.5 4.9 3.2 23.6 13.4 41.5 22.6 95.5 48.9 123.1 76 127.1 125.1 2.7 33.3 -7.2 62.6 -28.8 85.3 -26.1 27.3 -67.2 42 -117 41.6 -7.5 -0.1 -18.1 -0.7 -23.7 -1.5z"/>
  <path d="M92.7 424.9 c-11.1 -2.6 -20 -10.2 -25.5 -21.7 l-3.7 -7.7 -0.6 -155.5 c-0.5 -141.9 -0.7 -156.2 -2.3 -164 -7.4 -36.5 -22.2 -54.3 -50.1 -59.9 -8.9 -1.8 -9 -1.8 -9.3 -5 l-0.3 -3.1 59.5 0 59.6 0 0 209 0 209 -11.7 -0.1 c-6.5 -0.1 -13.5 -0.5 -15.6 -1z"/>
  <path d="M578.5 424.6 c-11.5 -3.6 -21.2 -12.7 -26.1 -24.2 l-2.9 -6.9 -0.5 -157.5 -0.6 -157.5 -2.3 -10 c-4.3 -19.1 -10.1 -30.6 -19.7 -39.4 -7.1 -6.5 -16.1 -10.9 -26.8 -12.9 l-8.6 -1.7 0 -3.2 0 -3.3 138.5 0 c149.3 0 142.7 -0.2 145.5 4.9 2.6 5 -0.6 12.3 -6.2 13.6 -1.2 0.3 -33.3 0.6 -71.3 0.7 l-69 0.3 -5.7 2.3 c-3.1 1.3 -6.8 3.2 -8.2 4.3 -3.8 3 -7.5 11.5 -8.6 19.9 -0.5 4.2 -1 37.4 -1 75.3 l0 67.7 75 0 75 0 0 9.5 0 9.5 -75 0 -75 0 0 105 0 105 -11.2 -0.1 c-6.2 0 -13.1 -0.6 -15.3 -1.3z"/>
 </g>
</svg>